<?xml version="1.0" ?><!DOCTYPE svg  PUBLIC '-//W3C//DTD SVG 1.1//EN'  'http://www.w3.org/Graphics/SVG/1.1/DTD/svg11.dtd'><svg enable-background="new 0 0 24 24" height="24px" id="Layer_1" version="1.1" viewBox="0 0 24 24" width="24px" xml:space="preserve" xmlns="http://www.w3.org/2000/svg" xmlns:xlink="http://www.w3.org/1999/xlink"><g id="icon"><path d="M11.9815,23c6.0764,0,11.0008,-4.9256,11.0008,-11.0011c0,-6.0751,-4.9243,-11.0005,-11.0008,-11.0005C5.9056,0.9984,0.9813,5.9238,0.9813,11.9989C0.9813,18.0744,5.9056,23,11.9815,23" fill="#F29100"/><path d="M9.3836,14.6121c0.2763,0.2756,0.4445,0.65,0.4458,1.0667c-0.0013,0.416,-0.1695,0.7904,-0.4445,1.0647l-0.0013,0.0003c-0.2749,0.2746,-0.652,0.4425,-1.0702,0.4425c-0.419,0,-0.7941,-0.1685,-1.0696,-0.4428c-0.2743,-0.2743,-0.4438,-0.6484,-0.4438,-1.0647c0,-0.4167,0.1695,-0.7918,0.4438,-1.067v0.0003c0.2756,-0.2743,0.6507,-0.4438,1.0696,-0.4438C8.7316,14.1683,9.1087,14.3378,9.3836,14.6121zM9.3836,14.6118v0.0003l0,0V14.6118zM7.2437,16.7439v-0.0003c-0.0007,0,-0.0007,0,-0.0007,0L7.2437,16.7439zM6.8012,10.0239v1.5004c0,0.1807,0.1419,0.3273,0.3222,0.3382c1.3006,0.0786,2.5198,0.6261,3.4483,1.557c0.9296,0.9274,1.4601,2.1494,1.5381,3.4539c0.0109,0.1829,0.1596,0.3268,0.3428,0.3268h1.5227c0.1932,0,0.3486,-0.1613,0.3395,-0.3543c-0.0917,-1.9332,-0.9146,-3.676,-2.1995,-4.9614c-1.2842,-1.2855,-3.0275,-2.109,-4.96,-2.2C6.9624,9.6753,6.8012,9.8308,6.8012,10.0239zM6.8044,6.144v1.4988c0,0.1821,0.144,0.3316,0.3261,0.3381c4.8218,0.172,8.7099,4.0666,8.8823,8.8932c0.0065,0.182,0.156,0.326,0.3381,0.326h1.5047c0.1918,0,0.3454,-0.1591,0.3395,-0.3508c-0.0924,-3.0033,-1.3507,-5.7163,-3.3376,-7.7055C12.87,7.1557,10.1581,5.897,7.1553,5.8045C6.9636,5.7986,6.8044,5.9522,6.8044,6.144z" fill="#FFFFFF"/><path d="M4.2218,19.7782C6.2124,21.7688,8.9624,23,12,23c6.0751,0,11,-4.9249,11,-11c0,-3.0376,-1.2312,-5.7876,-3.2218,-7.7782L4.2218,19.7782z" fill="#231F20" opacity="0.1"/></g></svg>